<svg xmlns="http://www.w3.org/2000/svg" viewBox="0 0 96 96" width="96" height="96" role="img" aria-label="Alpha Gains">
  <defs>
    <linearGradient id="agGold" x1="10" y1="4" x2="86" y2="92" gradientUnits="userSpaceOnUse">
      <stop offset="0" stop-color="#FDE68A"/>
      <stop offset=".34" stop-color="#F59E0B"/>
      <stop offset=".7" stop-color="#D97706"/>
      <stop offset="1" stop-color="#FBBF24"/>
    </linearGradient>
    <linearGradient id="agCore" x1="18" y1="14" x2="78" y2="86" gradientUnits="userSpaceOnUse">
      <stop offset="0" stop-color="#212A3C"/>
      <stop offset=".55" stop-color="#111622"/>
      <stop offset="1" stop-color="#070A0F"/>
    </linearGradient>
  </defs>
  <path d="M48 3.5 8.5 18.8v28.4C8.5 68.4 25.4 86.3 48 92.5c22.6-6.2 39.5-24.1 39.5-45.3V18.8z" fill="url(#agGold)"/>
  <path d="M48 11.8 16.7 24.6v22.6c0 17 13.6 31.8 31.3 37 17.7-5.2 31.3-20 31.3-37V24.6z" fill="url(#agCore)"/>
  <path d="M48 24 71 68H58.6L48 46.4 37.4 68H25z" fill="#FFFFFF"/>
  <path d="M43.5 55.6h9L55.6 62H40.4z" fill="url(#agGold)"/>
</svg>
